<svg xmlns="http://www.w3.org/2000/svg" xmlns:xlink="http://www.w3.org/1999/xlink" viewBox="0 0 233.29 316.93"><defs><style>.cls-1{fill:none;}.cls-2{fill:url(#Unbenannter_Verlauf_18);}.cls-3{clip-path:url(#clip-path);}.cls-4{fill:#ededed;}</style><linearGradient id="Unbenannter_Verlauf_18" x1="116.65" y1="270.1" x2="116.65" y2="36.81" gradientUnits="userSpaceOnUse"><stop offset="0" stop-color="#e62b4a"/><stop offset="1" stop-color="#e63736"/></linearGradient><clipPath id="clip-path" transform="translate(0 36.81)"><rect class="cls-1" y="0.39" width="232.9" height="232.9" rx="14.36"/></clipPath></defs><g id="Layer_2" data-name="Layer 2"><g id="Layer_1-2" data-name="Layer 1"><rect class="cls-2" y="36.81" width="233.29" height="233.29" rx="21.87"/><g class="cls-3"><path class="cls-4" d="M34.32,164.92c-16.45-31.4-10.26-63.45,17.12-83.28C69.5,68.56,89.35,58,108.49,46.38c7.81-4.72,16-8.88,23.78-13.55C158.09,17.43,178.75-1.23,173-36.81c29,30.07,37.57,76.28-2.33,106.65-25.27,19.24-54.12,30.29-83.58,40.5-9,3.12-18.19,6-26.9,9.83C39.24,129.46,33,140.14,34.32,164.92Z" transform="translate(0 36.81)"/><path class="cls-4" d="M133.37,280.11C99,254.33,68.59,225.65,59.85,181.29c-3.77-19.16,2.6-33.23,20.53-40.47,16.44-6.64,33.89-10.91,51.1-15.46,23.52-6.22,45.88-14.28,62.43-33.81,9.07,27.54-4.59,53.84-31.73,60.1-16.94,3.91-34.4,5.54-51.55,8.62-24.51,4.41-33.83,16.58-24.86,39.46,8.65,22.09,22.32,42.24,34.27,63C123.66,269,128.88,274.33,133.37,280.11Z" transform="translate(0 36.81)"/></g></g></g></svg>