<svg xmlns="http://www.w3.org/2000/svg" xmlns:xlink="http://www.w3.org/1999/xlink" viewBox="0 0 624.9 288.71"><defs><style>.cls-1{fill:url(#Unbenannter_Verlauf_18);}.cls-2{fill:url(#Unbenannter_Verlauf_18-2);}.cls-3{font-size:137.46px;fill:#101b26;font-family:Montserrat-Medium, Montserrat;font-weight:500;letter-spacing:0.05em;}.cls-4{letter-spacing:0.05em;}.cls-5{letter-spacing:0.05em;}</style><linearGradient id="Unbenannter_Verlauf_18" y1="83.51" x2="142.78" y2="83.51" gradientUnits="userSpaceOnUse"><stop offset="0" stop-color="#e62b4a"/><stop offset="1" stop-color="#e63736"/></linearGradient><linearGradient id="Unbenannter_Verlauf_18-2" x1="27.76" y1="184.34" x2="141.93" y2="184.34" xlink:href="#Unbenannter_Verlauf_18"/></defs><g id="Layer_2" data-name="Layer 2"><g id="Layer_1-2" data-name="Layer 1"><path class="cls-1" d="M7.48,167c-13.62-26-8.49-52.53,14.17-69C36.61,87.25,53,78.45,68.89,68.88c6.46-3.91,13.2-7.35,19.69-11.22C110,44.91,127.06,29.46,122.31,0c24,24.89,31.1,63.16-1.93,88.3-20.92,15.93-44.81,25.08-69.2,33.53-7.47,2.59-15.06,5-22.27,8.14C11.55,137.66,6.41,146.51,7.48,167Z"/><path class="cls-2" d="M89.49,262.4c-28.43-21.35-53.64-45.1-60.87-81.82-3.12-15.87,2.15-27.51,17-33.51,13.61-5.5,28.06-9,42.3-12.8,19.47-5.15,38-11.82,51.69-28,7.51,22.81-3.79,44.59-26.27,49.77-14,3.23-28.48,4.58-42.68,7.14-20.29,3.65-28,13.72-20.58,32.67,7.16,18.28,18.48,35,28.37,52.13C81.45,253.17,85.77,257.61,89.49,262.4Z"/><text class="cls-3" transform="translate(90.75 252.56)">u<tspan class="cls-4" x="99.93" y="0">n</tspan><tspan class="cls-5" x="200.82" y="0">derz</tspan></text></g></g></svg>